<svg xmlns="http://www.w3.org/2000/svg" color-interpolation-filters="sRGB" style="margin:auto"
  version="1.0"
  viewBox="0 0 340 250">
  <rect width="100%" height="100%" fill="#fef5ef" />
  <g fill="#4e374f">
    <g transform="translate(78 80.406)">
      <path fill="none" d="M0 0h60v89.189H0z" />
      <svg width="60" height="89.189" filter="url(#a)"
        style="overflow:visible">
        <svg xmlns="http://www.w3.org/2000/svg" xmlns:xlink="http://www.w3.org/1999/xlink"
          xml:space="preserve" enable-background="new 0 0 100 100"
          viewBox="26.985 15.79 46.028 68.42">
          <path
            d="M71.513 18.148h-7.187a1.5 1.5 0 0 0-1.5 1.5v.862a1.487 1.487 0 0 0-.309.902c0 .287-.521.287-.521 0a1.5 1.5 0 0 0-1.5-1.5h-2.825V17.29a1.5 1.5 0 0 0-1.5-1.5h-9.556a1.5 1.5 0 0 0-1.5 1.5v2.622h-2.259a1.5 1.5 0 0 0-1.484 1.283 4.008 4.008 0 0 1-2.184 3.006 6.605 6.605 0 0 0-5.6-3.111c-3.641 0-6.603 2.962-6.603 6.603s2.962 6.603 6.603 6.603a6.612 6.612 0 0 0 5.392-2.798c1.273.471 2.195 1.488 2.395 2.716a1.5 1.5 0 0 0 1.48 1.259h2.259l.003 13.92-1.593 26.46a7.811 7.811 0 0 0 2.13 5.878c1.505 1.599 3.542 2.479 5.738 2.479s4.233-.88 5.738-2.479a7.807 7.807 0 0 0 2.13-5.878l-1.59-26.37v-14.01h2.825c.828 0 1.496-.653 1.496-1.482.014-.027.104-.107.265-.107s.251.08.261.089c0 .34.118.651.309.902v.863a1.5 1.5 0 0 0 1.5 1.5h7.187a1.5 1.5 0 0 0 1.5-1.5v-16.09a1.5 1.5 0 0 0-1.5-1.5zm-23.398.643h6.556v1.122h-6.556v-1.122zm6.56 30.782 1.593 26.459c.081 1.358-.387 2.651-1.319 3.642s-2.195 1.535-3.555 1.535-2.621-.545-3.554-1.535-1.401-2.283-1.32-3.642l1.596-26.549v-14.01h6.556l.003 14.1zm7.583-18.689c-1.224 0-2.292.642-2.85 1.589H43.991c-.854-2.169-2.917-3.783-5.513-4.18a1.498 1.498 0 0 0-1.603.868 3.61 3.61 0 0 1-3.287 2.134c-1.986 0-3.603-1.616-3.603-3.603s1.616-3.603 3.603-3.603c1.533 0 2.9.976 3.401 2.428a1.5 1.5 0 0 0 1.693.985 7.02 7.02 0 0 0 5.344-4.59h15.336a3.264 3.264 0 0 0 3.464 1.71v6.308a3.53 3.53 0 0 0-.568-.046zm7.755 3.354h-4.187v-13.09h4.187v13.09z" />
        </svg>
      </svg>
      <defs>
        <filter id="a">
          <feColorMatrix values="0 0 0 0 0.3046875 0 0 0 0 0.21484375 0 0 0 0 0.30859375 0 0 0 1 0" />
        </filter>
      </defs>
    </g>
    <g>
      <path
        d="M178.53 119.694q0 3.26-1.07 5.9-1.06 2.63-3.03 4.46-1.97 1.84-4.77 2.84-2.8 1-6.26 1-5.54 0-9.87-1.77-4.33-1.77-7.13-4.03l5.53-5.54q2.2 2 4.93 3.07 1.67.67 3.14.87 1.46.2 2.4.2 1.73 0 3.16-.44 1.44-.43 2.5-1.16 2.27-1.67 2.27-4.4 0-1.67-1.2-3-.93-1.07-2.4-1.74-1.2-.66-2.53-1.06-1.34-.4-2.4-.74-.34-.13-.6-.16-.27-.04-.47-.17-.13 0-.4-.13-1.4-.4-4.03-1.4-2.64-1-5.24-2.74-6.06-4.06-6.06-10 0-3.93 1.36-6.63 1.37-2.7 3.57-4.4 2.2-1.7 4.9-2.43 2.7-.74 5.3-.74 4.8 0 8.07 1.14 3.26 1.13 5.2 2.26 1 .6 1.7 1.17t1.23 1.03l-5.67 5.74q-1.8-1.8-3.66-2.74-2.8-1.33-5.87-1.33-1.33 0-2.67.33-1.33.34-2.33.87-2.93 1.8-2.93 4.73 0 1.8 1.2 3.07.86 1 2.4 1.8 1.26.67 2.66 1.07 1.4.4 2.6.73l.8.2q.34.13 1.27.4.93.27 2.2.8t2.77 1.27q1.5.73 2.96 1.73 6.47 4.27 6.47 10.07Zm51.8-10.07q0 3.87-1.1 7.33-1.1 3.47-3.1 6.4l4.2 4.27v11.33l-24.27-24.26v-11.34l14.27 14.2q2-3.6 2-7.93 0-3.27-1.2-6.2t-3.53-5.27q-2.34-2.33-5.27-3.56-2.93-1.24-6.27-1.24-3.26 0-6.2 1.24-2.93 1.23-5.26 3.56-2.34 2.34-3.54 5.27-1.2 2.93-1.2 6.2t1.2 6.23q1.2 2.97 3.54 5.3 2.33 2.34 5.26 3.54 2.94 1.2 6.2 1.2.87 0 1.7-.1.84-.1 1.64-.24l6.33 6.34q-2.2.93-4.63 1.46-2.44.54-5.04.54-5 0-9.43-1.9t-7.7-5.2q-3.27-3.3-5.17-7.74-1.9-4.43-1.9-9.43t1.9-9.43q1.9-4.44 5.17-7.74t7.7-5.2q4.43-1.9 9.43-1.9 5.07 0 9.47 1.9t7.7 5.2q3.3 3.3 5.2 7.74 1.9 4.43 1.9 9.43Zm13.33 15.4H262v8h-26.34v-46.6h8v38.6Z" />
      <path
        d="M160.29 152.313q1.27.893 2.034 2.292.764 1.399.764 3.046v.07q0 1.329-.506 2.52-.516 1.19-1.4 2.063-.892.873-2.073 1.39-1.17.505-2.51.505h-6.32l1.527-3.81h4.793q1.111 0 1.895-.784.774-.773.774-1.885v-.07q0-1.11-.774-1.894-.784-.774-1.895-.774h-7.779v9.217H145v-22.245h10.041q1.34 0 2.53.506 1.19.506 2.064 1.4.873.892 1.389 2.063.506 1.18.506 2.51v.07q0 1.071-.337 2.044-.328.972-.903 1.766Zm-2.58-3.81v-.07q0-1.111-.774-1.885-.774-.784-1.895-.784h-6.221v5.408h6.221q1.121 0 1.895-.784.774-.774.774-1.885Zm22.156-6.549h3.82V155.3q0 1.935-.734 3.642-.735 1.696-2.005 2.966-1.27 1.27-2.966 2.005-1.707.734-3.642.734-1.944 0-3.641-.734-1.697-.735-2.967-2.005-1.28-1.27-2.004-2.966-.734-1.707-.734-3.642v-13.345h3.81V155.3q0 1.112.416 2.114.417 1.002 1.211 1.796.794.793 1.796 1.21 1.002.407 2.113.407 2.292 0 3.91-1.617.793-.794 1.21-1.796.407-1.002.407-2.114v-13.345Zm9.852.03v22.215h-3.81v-22.215h3.81Zm6.202 18.405h8.74v3.81h-12.55v-22.215h3.81v18.405Zm19.705-18.435q2.292 0 4.326.873t3.542 2.382q1.508 1.508 2.381 3.542.873 2.034.873 4.326 0 2.282-.873 4.316t-2.381 3.552q-1.508 1.508-3.542 2.381-2.034.873-4.326.873h-3.94l1.558-3.81h2.382q1.458 0 2.798-.555 1.34-.566 2.381-1.578 1.022-1.052 1.578-2.371.555-1.32.555-2.808 0-1.469-.555-2.798-.556-1.34-1.578-2.382-1.042-1.021-2.381-1.577-1.34-.556-2.798-.556h-5.398V164.2h-3.82v-22.245h9.218Zm28 3.81h-11.153v5.408h8.295l.953 3.81h-9.248v5.407h11.153v3.81h-14.963v-22.245h14.963v3.81ZM262 149.931q0 1.201-.337 2.302-.328 1.092-.923 2.015-.585.922-1.429 1.676-.843.745-1.855 1.22L262 164.2h-4.544l-4.038-6.26h-2.61l1.558-3.81h1.657q1.716 0 2.957-1.24.565-.606.883-1.37.317-.764.317-1.588 0-.833-.317-1.597-.318-.754-.883-1.33-1.24-1.24-2.957-1.24h-4.515V164.2h-3.81v-22.245h8.325q1.647 0 3.095.635 1.45.635 2.53 1.717 1.082 1.081 1.717 2.52.635 1.449.635 3.105Z"
      />
    </g>
  </g>
</svg>
